<svg xmlns="http://www.w3.org/2000/svg" xmlns:xlink="http://www.w3.org/1999/xlink" width="519" height="900"><defs><path id="a" d="M0 .449h519v902H0z"/><path id="c" d="M0 .157h6.6V6.6H0z"/><path id="e" d="M.148.157H6.59V6.6H.148z"/><path id="g" d="M.138.157H6.58V6.6H.138z"/><path id="i" d="M.128.157h6.443V6.6H.128z"/><linearGradient id="k" x1="0%" y1="50%" y2="50%"><stop offset="0%" stop-color="#0069FF"/><stop offset="100%" stop-color="#0069FF"/></linearGradient></defs><g fill="none" fill-rule="evenodd" transform="translate(0 -.449)"><mask id="b" fill="#fff"><use xlink:href="#a"/></mask><use fill="#F3F4FB" xlink:href="#a"/><g stroke="#006AFF" stroke-linejoin="round" stroke-width="8" mask="url(#b)" opacity=".05"><path d="M318.1 908.95L-35.043 780.418l65.258 370.095z"/><path d="M-9.795 810.891l53.393 302.806L279.14 916.054z"/><path d="M15.676 841.388l41.709 236.535 183.99-154.388z"/><path d="M39.924 871.861l29.842 169.245 131.65-110.467z"/><path d="M65.395 901.358l18.157 102.974 80.1-67.211z"/></g><path fill="#3370FF" d="M97.34 786.29l33.776 19.5v39l-33.775 19.5-33.775-19.5v-39z" mask="url(#b)" opacity=".811" transform="rotate(30 97.34 825.29)"/><path fill="#14C0FF" d="M117.34 754.29l33.776 19.5v39l-33.775 19.5-33.775-19.5v-39z" mask="url(#b)" opacity=".194" transform="rotate(30 117.34 793.29)"/><g mask="url(#b)" opacity=".6"><g transform="rotate(56 -683.218 549.883)"><mask id="d" fill="#fff"><use xlink:href="#c"/></mask><path fill="#006AFF" d="M0 3.379C0 1.599 1.477.157 3.3.157 5.122.157 6.6 1.6 6.6 3.38c0 1.778-1.478 3.22-3.3 3.22C1.477 6.6 0 5.158 0 3.38" mask="url(#d)"/></g><g transform="rotate(56 -688.864 560.946)"><mask id="f" fill="#fff"><use xlink:href="#e"/></mask><path fill="#006AFF" d="M.148 3.379a3.221 3.221 0 116.442 0 3.221 3.221 0 01-6.442 0" mask="url(#f)"/></g><g transform="rotate(56 -695.752 574.04)"><mask id="h" fill="#fff"><use xlink:href="#g"/></mask><path fill="#006AFF" d="M.138 3.379a3.221 3.221 0 116.442 0 3.221 3.221 0 01-6.442 0" mask="url(#h)"/></g><path fill="#006AFF" d="M146.586 822.155a3.5 3.5 0 113.915 5.803 3.5 3.5 0 01-3.915-5.803m6.753 10.555a3.5 3.5 0 113.914 5.803 3.5 3.5 0 01-3.914-5.803m-11.971.837a3.5 3.5 0 113.914 5.803 3.5 3.5 0 01-3.914-5.803m6.683 9.557a3.5 3.5 0 113.914 5.803 3.5 3.5 0 01-3.914-5.803m-12.898 1.904a3.5 3.5 0 113.914 5.803 3.5 3.5 0 01-3.914-5.803m24.939-1.744a3.5 3.5 0 113.914 5.803 3.5 3.5 0 01-3.914-5.803"/><g transform="rotate(56 -702.3 585.668)"><mask id="j" fill="#fff"><use xlink:href="#i"/></mask><path fill="#006AFF" d="M.128 3.379a3.221 3.221 0 116.443 0 3.221 3.221 0 01-6.443 0" mask="url(#j)"/></g></g><g stroke="#006AFF" stroke-linejoin="round" stroke-width="8" mask="url(#b)" opacity=".05"><path d="M729.334 138.949L333.944-89.33v456.556z"/><path d="M358.102-46.919v373.735l323.664-186.867z"/><path d="M381.57-6.525v291.948L634.405 139.45z"/><path d="M405.727 34.886V244.01l181.109-104.56z"/><path d="M427.885 77.297V203.6l109.382-63.152z"/><path d="M489.906 140.949l-38.553-22.259v44.517z"/></g><path fill="url(#k)" d="M559.361 110.07l-82.655.942a1.28 1.28 0 00-.766.177 1.319 1.319 0 00-.455 1.795l42.19 71.913c.013.022.032.037.046.058.043.067.091.128.144.184.01.011.019.023.03.033a1.286 1.286 0 001.565.196c.205-.12.365-.29.474-.486.02-.035.029-.075.044-.112l40.528-72.748a1.322 1.322 0 00-.014-1.31 1.294 1.294 0 00-1.116-.642h-.015" mask="url(#b)"/><path fill="#14C0FF" d="M466.85 45.899l-29.5 51 29.5 51h59l29.5-51-29.5-51z" mask="url(#b)" opacity=".194"/></g></svg>